<svg xmlns="http://www.w3.org/2000/svg" viewBox="0 0 104 104">
  <g transform="translate(-.586 -397.38)">
    <circle cx="52.586" cy="449.38" r="50" stroke="#fff" stroke-width="4" stroke-linecap="round" stroke-linejoin="round"/>
    <path d="M85 460c0 19.187-32.014 18.8-32.014 33.572 0-14.772-32.014-13.429-32.014-33.572s32.014-21.486 32.014-33.572C52.986 438.514 85 439.857 85 460z" fill="#fff"/>
    <circle cx="42.324" cy="451.122" r="5.5"/>
    <path d="M68.91 463.715c-9.186 5.303-23.461 5.647-31.91-.997 0 11.066 31.91 10.945 31.91.997z"/>
    <circle cx="63.877" cy="451.363" r="5.5"/>
    <path d="M21.022 423.876c15.767-8.11 27.398.408 27.717 10.829v2h4v-2c2.38-17.874-20.633-25.276-31.717-10.83z"  fill="#fff"/>
    <path d="M48.74 436.585l3.999.12c6.974-17.917 18.703-15.86 27.74-4.284-4.888-24.683-31.242-12.777-31.739 4.164z" fill="#fff"/>
    <path d="M50.448 433.58l3.998.12-1.707 1.005c-1.261-19.55 4.743-26.207 17.931-24-15.597-9.419-21.623 5.519-20.222 22.875z" fill="#fff"/>
  </g>
</svg>