<svg viewBox="0 0 206.191 206.191" class="item-icon">
  <path class="stroke" d="M53.096 23.096l-40 80 40 80M153.096 23.096l40 80-40 80" stroke-width="8.078" stroke-linecap="square" paint-order="stroke fill markers"></path>
  <path class="stroke" d="M63.096 173.096v-20l66.315-112.51s6.348-8.355 13.685-4.12c7.912 4.568 3.264 14.183 3.264 14.183L78.796 163.096zM129.411 40.585l16.95 10.064M33.096 113.096h40M146.096 73.096h18M169.096 93.096h5M43.096 133.096h18M33.096 93.096H45.41M53.096 53.096h55M63.096 33.096h18M86.096 33.096h34" stroke-width="6" paint-order="stroke fill markers"></path>
  <path class="stroke" d="M43.096 73.096h20" stroke-width="5.077" paint-order="stroke fill markers"></path>
  <path class="stroke" d="M50.096 93.096h22.02M67.931 73.096h29.165M77.096 93.096h7M122.096 113.096h24.27M110.096 133.096h14M134.096 93.096h30M151.096 113.096h23M153.096 133.096h10M98.096 153.096h32M144.096 153.096h11M135.096 153.096h4M84.096 173.096h48M137.096 173.096h7M129.096 133.096h19" stroke-width="6" paint-order="stroke fill markers"></path>
</svg>
